<?xml version="1.0" encoding="UTF-8"?>
<svg xmlns="http://www.w3.org/2000/svg" viewBox="0 0 349.67 113.51">
  <path d="M339.05,33.98h-1.77v-.99h4.76v.99h-1.75v4.93h-1.23v-4.93ZM348.54,34.24h-.03l-1.75,4.68h-.8l-1.74-4.68h-.02v4.68h-1.16v-5.92h1.71l1.61,4.19,1.61-4.19h1.71v5.92h-1.14v-4.68h0Z" fill="#5382a1" />
  <polygon points="334.44 32.7 318.89 32.7 301.79 50.74 289.44 32.7 273.89 32.7 292.76 60.26 264.89 89.66 280.44 89.66 299.28 69.79 312.89 89.66 328.44 89.66 308.31 60.26 334.44 32.7" fill="#5382a1" />
  <path d="M254.28,25.42h36.4l2.5-12h-42.42c-8.2,0-15.27,5.75-16.94,13.78l-13.13,63.06h13.5l6.78-32.54h40.8l-8-11.63h-30.38l2.96-14.21c.78-3.76,4.09-6.45,7.93-6.45Z" fill="#5382a1" />
  <path d="M76.96,74.39c-4.91,4.26-10.09,6.65-14.74,6.65-6.64,0-10.22-3.98-10.22-10.36,0-6.91,3.84-11.96,19.26-11.96h5.7v15.68M90.5,89.66v-47.29c0-12.08-6.89-20.05-23.5-20.05-9.7,0-18.19,2.39-25.1,5.45l1.99,8.37c5.44-2,12.47-3.85,19.38-3.85,9.57,0,13.69,3.85,13.69,11.82v5.98h-4.78c-23.25,0-33.74,9.03-33.74,22.57,0,11.69,6.91,18.34,19.92,18.34,8.36,0,14.61-3.45,20.45-8.51l1.06,7.18h10.62Z" fill="#f8981d" />
  <path d="M135.69,89.66h-16.89l-20.32-66.14h14.75l12.61,40.64,2.8,12.22c6.38-17.67,10.89-35.6,13.15-52.86h14.35c-3.84,21.78-10.76,45.69-20.44,66.14" fill="#f8981d" />
  <path d="M200.47,74.39c-4.92,4.26-10.11,6.65-14.76,6.65-6.63,0-10.22-3.98-10.22-10.36,0-6.91,3.85-11.96,19.27-11.96h5.71v15.68M214.01,89.66v-47.29c0-12.08-6.91-20.05-23.5-20.05-9.7,0-18.2,2.39-25.1,5.45l1.99,8.37c5.44-2,12.49-3.85,19.39-3.85,9.56,0,13.69,3.85,13.69,11.82v5.98h-4.78c-23.26,0-33.74,9.03-33.74,22.57,0,11.69,6.91,18.34,19.92,18.34,8.37,0,14.61-3.45,20.46-8.51l1.06,7.18h10.62Z" fill="#f8981d" />
  <path d="M23.6,100.9c-3.86,5.64-10.09,10.09-16.92,12.62l-6.68-7.87c5.19-2.67,9.65-6.97,11.72-10.98,1.79-3.57,2.53-8.16,2.53-19.15V0h14.39v74.48c0,14.69-1.18,20.63-5.03,26.42" fill="#f8981d" />
</svg>