<?xml version="1.0" encoding="UTF-8"?>
<svg xmlns="http://www.w3.org/2000/svg" viewBox="0 0 229.88 225.66">
  <path d="M211.73,174.53c-12.51-.32-22.2.94-30.33,4.38-2.35.94-6.08.94-6.41,3.9,1.27,1.26,1.41,3.28,2.52,5.01,1.87,3.13,5.14,7.33,8.13,9.53,3.28,2.51,6.57,5,10.02,7.19,6.08,3.76,12.97,5.95,18.9,9.7,3.45,2.18,6.88,5,10.34,7.35,1.7,1.25,2.79,3.28,4.99,4.06v-.48c-1.1-1.41-1.42-3.44-2.5-5.01l-4.7-4.53c-4.54-6.09-10.17-11.41-16.26-15.78-5.01-3.45-15.95-8.14-17.98-13.9l-.32-.32c3.44-.32,7.52-1.57,10.79-2.53,5.32-1.4,10.17-1.08,15.63-2.49,2.51-.63,5-1.41,7.52-2.19v-1.41c-2.83-2.82-4.85-6.56-7.82-9.22-7.96-6.88-16.73-13.6-25.8-19.23-4.85-3.13-11.1-5.15-16.27-7.82-1.86-.94-5-1.41-6.1-2.97-2.8-3.44-4.38-7.97-6.42-12.04-4.52-8.59-8.91-18.13-12.81-27.21-2.82-6.09-4.54-12.18-7.98-17.82-16.11-26.58-33.61-42.67-60.51-58.47-5.78-3.29-12.66-4.69-20-6.42l-11.73-.62c-2.5-1.1-5.01-4.07-7.19-5.48C30.52,4.11,7.55-8.08.99,8.01c-4.23,10.17,6.25,20.18,9.85,25.34,2.66,3.58,6.1,7.66,7.96,11.73,1.1,2.66,1.41,5.48,2.51,8.29,2.5,6.88,4.84,14.54,8.13,20.96,1.72,3.27,3.59,6.71,5.78,9.68,1.26,1.73,3.44,2.5,3.92,5.32-2.18,3.11-2.35,7.81-3.6,11.72-5.62,17.67-3.43,39.55,4.55,52.53,2.49,3.91,8.45,12.51,16.41,9.22,7.05-2.81,5.49-11.72,7.51-19.54.46-1.89.16-3.13,1.1-4.37v.31c2.18,4.37,4.38,8.59,6.4,12.97,4.85,7.65,13.3,15.63,20.33,20.93,3.75,2.83,6.71,7.67,11.4,9.4v-.47h-.31c-.95-1.4-2.34-2.03-3.59-3.12-2.82-2.82-5.94-6.26-8.13-9.38-6.55-8.76-12.35-18.46-17.5-28.46-2.52-4.85-4.69-10.16-6.72-15.01-.95-1.87-.95-4.69-2.52-5.63-2.35,3.44-5.78,6.41-7.5,10.62-2.98,6.73-3.29,15.02-4.39,23.63l-.62.3c-4.98-1.25-6.71-6.4-8.6-10.78-4.68-11.11-5.47-28.94-1.41-41.75,1.09-3.28,5.8-13.6,3.92-16.72-.94-2.99-4.07-4.7-5.79-7.05-2.02-2.96-4.23-6.71-5.63-10-3.75-8.75-5.64-18.45-9.68-27.2-1.89-4.08-5.16-8.3-7.82-12.05-2.98-4.22-6.26-7.19-8.61-12.19-.78-1.72-1.87-4.53-.62-6.4.31-1.26.94-1.72,2.19-2.04,2.03-1.71,7.81.46,9.84,1.41,5.8,2.34,10.64,4.53,15.48,7.81,2.19,1.57,4.54,4.54,7.34,5.32h3.29c4.99,1.09,10.62.3,15.32,1.72,8.28,2.66,15.79,6.57,22.52,10.78,20.48,12.99,37.37,31.44,48.77,53.48,1.87,3.59,2.67,6.88,4.37,10.63,3.29,7.67,7.37,15.49,10.63,22.99,3.29,7.34,6.42,14.84,11.11,20.95,2.34,3.28,11.74,5,15.95,6.72,3.12,1.4,7.97,2.65,10.79,4.37,5.32,3.28,10.62,7.04,15.62,10.64,2.49,1.87,10.32,5.78,10.78,8.91M52.25,38.66c-2.16-.02-4.31.24-6.4.79v.31h.3c1.26,2.5,3.45,4.23,5.01,6.41,1.26,2.51,2.35,4.99,3.59,7.5l.3-.31c2.21-1.56,3.3-4.06,3.3-7.82-.95-1.1-1.1-2.18-1.89-3.28-.92-1.57-2.95-2.34-4.21-3.6" fill="#5d87a1" />
</svg>