<?xml version="1.0" encoding="UTF-8"?>
<svg xmlns="http://www.w3.org/2000/svg" viewBox="0 0 97.2 97.08">
  <path d="M88.5,5.68c-1.35,3.24-3.1,6.29-5.2,9.1C64.7-4.46,34.02-4.98,14.78,13.62c-19.24,18.6-19.76,49.28-1.16,68.52.64.67,1.31,1.31,1.99,1.94l1.8,1.6c20.44,17.24,50.98,14.64,68.22-5.8,6.61-7.84,10.56-17.57,11.28-27.8,1.4-12.2-2.3-27.8-8.4-46.4ZM22.6,84.48c-1.44,1.76-4.03,2.03-5.8.6-1.76-1.44-2.03-4.03-.6-5.8,1.43-1.76,4.03-2.03,5.79-.6,1.72,1.46,1.99,4.02.6,5.8ZM88.2,69.98c-11.9,15.9-37.5,10.5-53.8,11.3,0,0-2.9.2-5.8.6,0,0,1.1-.5,2.5-1,11.5-4,16.9-4.8,23.9-8.4,13.1-6.7,26.2-21.4,28.8-36.6-5,14.6-20.2,27.2-34,32.3-9.5,3.5-26.6,6.9-26.6,6.9l-.7-.4c-11.6-5.7-12-30.9,9.2-39,9.3-3.6,18.1-1.6,28.2-4,10.7-2.5,23.1-10.5,28.1-21,5.6,16.9,12.4,43.1.2,59.3Z" fill="#6db33f" />
</svg>